<?xml version="1.0" encoding="UTF-8"?>
<svg id="Layer_2" data-name="Layer 2" xmlns="http://www.w3.org/2000/svg" viewBox="0 0 451.56 213.72">
  <defs>
    <style>
      .cls-1 {
        fill: #1b5a41;
      }
    </style>
  </defs>
  <g id="Layer_1-2" data-name="Layer 1">
    <path class="cls-1" d="M402.34,45.47c0,1.08-.88,1.96-1.97,1.96s-1.97-.88-1.97-1.96.88-1.97,1.97-1.97,1.97.88,1.97,1.97Z"/>
    <path class="cls-1" d="M445.26,46.95c-.46-.05-.92-.12-1.39-.2-1.75-.33-3.5-.82-5.24-1.87v-.55c2.11-1.14,4.28-1.84,6.51-2.07-.64-11.64-5.75-22.13-13.66-29.75-.7.46-1.46.89-2.32,1.24l-.44-.33c.14-.99.35-1.93.63-2.85-7.56-6.41-17.29-10.36-27.96-10.59-.02.16-.04.32-.07.48-.31,1.76-.77,3.51-1.79,5.27h-.55c-1.03-1.81-1.71-3.69-2.04-5.63-2.96.22-5.97.73-9.01,1.55-6.32,1.67-12.14,4.83-17.04,9.01.27.86.48,1.77.58,2.75l-.44.33c-.78-.35-1.52-.76-2.21-1.2-5.27,5.11-9.29,11.53-11.45,18.62-1.09,3.77-1.7,7.51-1.88,11.16.31.03.62.09.92.13,1.75.33,3.5.82,5.23,1.86v.55c-1.99,1.09-4.05,1.78-6.16,2.04.99,19.9,14.85,36.5,33.65,41.2,2.43.69,4.52,2.77,4.52,5.38,0,6.2-6.05,8.93-11.11,10.47-7.23,2.2-14.53,4.2-21.62,6.85-5.64,2.11-9.48,6.74-7.37,12.94,1.7,5,6.49,8.65,11.78,8.85,27.36.98,82.54,8.76,79.93-85.66ZM416.65,62.98c-2.23,2.42-7.64-.73-9.39-2.4-2.5-2.4-4.98-4.8-7.48-7.2-1.44-1.39-2.91-2.81-3.76-4.61-1.71-3.65-.78-8.53-.77-12.46.01-3.51.02-7.01.02-10.52.01-2.3,1.32-3.88,3.55-4.4,7.98-1.81,4.2,20.38,7.35,25.35,2.14,3.36,5.51,5.79,8.41,8.59,1.07,1.02,2.1,2.14,2.63,3.52.52,1.36.44,3.03-.57,4.12Z"/>
    <path class="cls-1" d="M352.12,76.46c-.18-5.88-2.01-11.86-4.3-17.19-.96-2.24-2.14-4.36-3.53-6.36-.95-1.36-2.26-3.26-3.92-3.45-1.34-.16-2.48.9-3.42,1.85-4.82,4.88-10.12,9.29-15.57,13.44-1.72,1.31-3.53,2.51-5.39,3.61-1.41.83-3.08,1.8-4.72,1.8-11.77,0-21.43-9.66-21.43-21.43,0-.56.03-1.12.1-1.68.46-3.69,2.63-6.68,5.66-8.74,3.33-2.26,7.15-2.79,10.74-4.38,7.44-3.28,11.9-11.79,11.22-19.77-.7-8.15-9.86-14.1-17.71-14.1-3.38,0-6.76.28-10.09.82-12.5,2.05-24.73,7.95-33.07,17.65-7.78,9.05-12.14,20.75-13.66,32.49-.75,5.79-.81,11.83.76,17.5,1.5,5.46,4.84,9.88,8.35,14.2.27.33.03.83-.39.82-7.18-.09-13.98-2.1-20.49-5.03.06-.63.17-1.26.22-1.89.43-6.35.09-12.91-1.12-19.13-1.01-5.18-2.59-10.25-4.64-15.11-2.69-6.4-6.2-12.44-10.35-18.01C197.45.31,159.02,2.51,159.01,2.51c-10.23.59-20.37,5.37-26.5,13.68-3.42,4.64-6.66,11.09-7.69,16.78-.68,3.73-.13,7.87,2.33,10.76,2.14,2.5,5.38,3.73,8.52,4.72,5.83,1.85,11.81,3.24,17.86,4.15,4.92.74,10.03.6,14.67,2.62,5.52,2.41,9.44,8.37,7.92,14.49-.82,3.28-3.46,5.83-6.36,7.56-11.04,6.62-34.06,4.19-45.28,10.85-5.96,3.54-8.68,10.9-7.3,17.69,6.54,32.03,40.15,27.06,40.15,27.06,4.9-.19,9.79-.6,14.65-1.3,5.22-.75,10.39-1.84,15.44-3.36,4.3-1.3,8.51-2.92,12.52-4.94,2.63-1.32,5.13-2.86,7.55-4.52,4.64,2.53,15.98,7.7,17.36,8.22,6.08,2.29,12.38,4.01,18.79,5.05,17.47,2.84,35.33.44,51.74-6,14.67-5.76,28.52-14.04,40.24-24.63,3.82-3.46,7.27-7.32,10.41-11.41,2.36-3.08,5.56-7.24,6-10.88.11-.88.12-1.77.1-2.65Z"/>
    <path class="cls-1" d="M107.56,49.06c-3.77-6.67-8.94-12.51-15.29-16.75-10.01-6.68-22.25-11.71-33.98-14.35-13.73-3.09-29.78-2.63-40.86,7.05C-.26,40.5-3.79,69.43,3.71,90.67c9.86,27.9,40.44,50.23,70.27,39.22,1.06-.39,2.09-1,3.16-1.34,23.28-7.38,39.29-33.35,37.33-57.09-.64-7.77-3.03-15.53-6.91-22.4ZM63.54,73.63c-1.86,2.17-4.53,3.37-8.1,2.82-6.29-.96-11.57-7.07-14.45-12.34-1.91-3.48-3.1-7.65-1.9-11.44,2.72-8.63,15.38-8.41,21.71-4.29,6.62,4.31,8.15,18.93,2.75,25.25Z"/>
    <path class="cls-1" d="M402.34,45.47c0,1.08-.88,1.96-1.97,1.96s-1.97-.88-1.97-1.96.88-1.97,1.97-1.97,1.97.88,1.97,1.97Z"/>
    <path class="cls-1" d="M402.34,45.47c0,1.08-.88,1.96-1.97,1.96s-1.97-.88-1.97-1.96.88-1.97,1.97-1.97,1.97.88,1.97,1.97Z"/>
    <g>
      <path class="cls-1" d="M437.22,200.69c-11.84.78-23.36,1.08-46.41,1.68-.45.01-4.27.11-8.67-1.58-1.21-.46-6.4-2.46-6.24-4.66.13-1.8,3.76-2.9,5.45-3.41,5.13-1.56,9.57-.89,10.24-.79,2.17.32-15.72-2.41,22.26,1.58,21.3,2.24,20.26,2.4,21.95,2.29.51-.03,4.74.06,10.19.89,3.74.57,5.59,1.28,5.56,2.13-.04,1.06-6.56,1.36-14.34,1.87Z"/>
      <path class="cls-1" d="M75.78,197.27c-9.09.13-25.27.2-48.53.2-4.09,0-7.67-.19-10.78-.56-3.62-.46-5.44-1.07-5.44-1.85s1.82-1.4,5.44-1.85c5.89-.74,10.47-.61,10.78-.58,3.25.29,8.84-.5,20.02-2.06,11.5-1.61,12.79-2.59,21.27-3.15,5.17-.34,10.08-.34,15.37,1.97.33.14,7.36,3.26,6.9,5.48-.38,1.83-5.66,2.28-15.03,2.42Z"/>
    </g>
    <g>
      <path class="cls-1" d="M130.27,202.3c.08.19.11.42.11.69,0,2.08-1.92,6.23-3.65,7.46-2.61,1.96-8.3,3.27-12.99,3.27-6.54,0-9.73-2.96-9.73-8.07,0-3.19,1-7.73,3.08-13.15l.19.15c-.96,3.54-1.35,6.11-1.35,7.84,0,3.5,3.08,5.54,9.23,5.54,6.88,0,14.03-1.88,15.07-2.69-.81-1.15-3.77-2.15-12.42-3.23l3.5-6.15c3.23.15,6.57.19,9.96.19h2.27l-1.38,8.23-1.88-.08Z"/>
      <path class="cls-1" d="M141.38,196.35c-1.58,4.46-3.65,6.04-8.04,6.04h-1.19c-.31,0-.65-.69-.65-2.27,0-3.27.88-5.96,2.04-5.96h1.19c5.11,0,6.46-.88,6.73-3.23l.39-3.27,1.23-.58v2.46c0,3.19,1.42,4.61,5.11,4.61l-1.38,8.23c-3.38,0-5.27-1.88-5.42-6.04ZM139.19,181.28l2.27-3.23c.77,1.15,2.92,2.61,4.58,3.31l-2.54,3.34c-1.73-.65-3.61-1.92-4.38-3.08l-2.23,3.08c-1.42-.65-3.08-2-3.81-3.19l2.54-3.46c.77,1.15,2.19,2.46,3.57,3.23Z"/>
      <path class="cls-1" d="M165.06,186.04c.5,1.31.81,3.5.81,5.46,0,4.15-3.27,10.88-4.58,10.88-4.19,0-8.88-2.19-9.15-5.92-1.61,4.38-3.23,5.92-5.34,5.92-.31,0-.65-.73-.65-2.27,0-3.27.92-5.96,2.04-5.96,3.04,0,4.38-.92,5.92-4.08,2.61-5.27,4.08-6.57,7.34-6.57,1.73,0,2.96.88,3.61,2.54ZM165.33,194.54l-.04-.19c-.04-.65-.58-2.77-.96-3.5-.61-1.04-1.27-1.46-3.11-1.46-3.96,0-6,.54-7.42,1.77,1.31,1.69,6.5,3.38,11.53,3.38Z"/>
      <path class="cls-1" d="M178.71,188.7c0,1.15-.42,2.58-2.04,5.38,4.58-2.31,6.34-5.15,6.34-9.07,0-3.11-.73-8.03-1.08-10.65l5.57-3.84c0,8.11-.19,14.57-.19,17.3,0,4.46,1.46,6.34,5,6.34l-1.38,8.23c-4.61,0-6.92-2.58-7.54-13.76l-.08-3.77c-.5,5.57-1.08,8.07-1.92,10.23-1.96,4.84-6.38,7.69-9.11,7.69-1.38,0-2.73-.88-6-5.31,4.34-1,7.69-2.08,10.19-3.31-1.04-4.11-7.31-11.03-9.27-16.11l3.69-5.42c2.58,6.92,7.8,12.15,7.8,16.07Z"/>
      <path class="cls-1" d="M216.58,189.58c0,5.34-3.77,12.8-5.23,12.8-3.08,0-5-1.88-5.19-4.92-1.15,3.54-2.69,4.92-4.96,4.92-2.54,0-4.08-1.77-4.27-5.31-1.35,3.69-3.23,5.31-6,5.31-.31,0-.65-.73-.65-2.27,0-3.27.88-5.96,2.04-5.96,3.69,0,5.5-1,6.27-3.88l.5-1.88h.19v1.69c0,2.61,1.35,4.08,3.73,4.08,2.81,0,4.11-1.04,4.81-3.54l.38-1.46h.19v1c0,2.73,2,4,5.77,4,.69,0,1.27-.04,1.69-.15-.58-1.54-1.61-3.5-3.11-6l2.88-3.5c.77,2.96.96,4.23.96,5.07Z"/>
      <path class="cls-1" d="M239.53,190.19c0,3.88-1.81,9.53-3.5,10.96-1.15.96-3.04,1.42-5.04,1.42-2.84,0-4.65-1.69-4.65-4.73,0-2.73,1-5.96,3.85-10.46-.96-.69-1.65-1.35-2.12-2.11l2.46-6.11c3.5,4.34,9,5.84,9,11.03ZM232.38,194.69c3.31,0,5.96-.38,6.69-.96-.42-1.88-5.42-3.92-8.65-6.19-1.46,2.38-2.08,4-2.08,5.04,0,1.38,1.38,2.11,4.04,2.11Z"/>
      <path class="cls-1" d="M256.25,191.66c-.58,4.69-1.27,7.57-2,8.5-1.35,1.61-4.46,3.08-7.07,3.08s-3.96-1.54-3.96-4.61c0-1.58.27-4.27.65-7.54l.19-.04v1.54c0,1.58,1,2.46,3.85,2.46s6.61-1.11,8.03-2.31c-.34-2.15-2.11-7.46-3.42-9.27l3.81-5.15c1.19,2.65,1.92,5.15,3.15,10.73.77,3.46,2.04,5.11,5.54,5.11l-1.38,8.23c-4.34,0-6.23-2.81-7.38-10.73Z"/>
      <path class="cls-1" d="M275.82,187.73c-3.54,0-6.19-.19-7.42.62-.04.23-.04.58-.04.92,0,1.88,2.69,4.11,6.07,4.11,1.84,0,5.27-.58,9.61-1.77l-2.5,7.69c-8.5,2.38-12.92,3.08-17.91,3.08-.31,0-.65-.73-.65-2.27,0-3.27.88-5.96,2.04-5.96h2.27c-.04-.23-.08-.54-.08-.81,0-5.73,4.81-11.38,8.76-11.38,1.54,0,4.04.23,5.81.04l-2.15,3.88c-.69,1.27-1.54,1.84-3.81,1.84Z"/>
      <path class="cls-1" d="M302.23,196.81c0,5.23-2.07,10.26-4.81,12.46-2.38,2.15-8,3.73-11.42,3.73-2.15,0-3.65-1.08-6.65-5.61,10.73-.27,19.72-2.35,22.07-4.92-.04-.85-.15-1.77-.27-2.61-2.12,1.42-5.27,2.31-8.23,2.31-3.15,0-4.92-1.69-4.92-4.88,0-4.84,2.58-13.3,6.77-13.3s7.46,5.15,7.46,12.84ZM293.16,194.54c2.46,0,4.81-.38,6.5-1l-.04-.11c-.92-2.27-3.23-3.54-6.23-3.54-2.54,0-4.69,1.54-4.69,3.04,0,.92,1.23,1.61,4.46,1.61Z"/>
      <path class="cls-1" d="M337.72,191.19c-.34,3.77-2.77,8.96-4.61,9.8-2.31,1.15-6.77,1.96-11.61,1.96-6.5,0-9.5-2.58-9.5-7.5,0-2.61.85-6.34,2.15-10l.15.15c-.46,1.69-.73,3.65-.73,4.61,0,2.88,2.81,4.5,9.23,4.5s12.42-.69,14.49-1.69c-.5-1.54-2.34-3.08-10.11-8.07l2.61-8.15,17.34-6.73-1.46,5.65-14.8,5.19c3.38,1.96,6.77,4.69,9.3,6.65,7.04,5.61,8.88,6.57,12.11,6.57l-1.38,8.23c-4,0-6.5-2.11-13.19-11.19Z"/>
      <path class="cls-1" d="M353.02,208.96l2.27-3.23c.77,1.15,2.92,2.61,4.58,3.31l-2.54,3.34c-1.73-.65-3.61-1.92-4.38-3.08l-2.23,3.08c-1.42-.65-3.08-2-3.81-3.19l2.54-3.46c.77,1.15,2.23,2.5,3.57,3.23ZM361.24,189.35c0,3.96-3.61,11.26-5.69,12.26-1.11.58-2.61.77-4.65.77-.31,0-.65-.73-.65-2.27,0-3.27.88-5.96,2.04-5.96,5,0,7.19-.15,8.03-.58-.58-1.61-2.42-4.15-3.92-6l3.77-4.08c.58,2.38,1.08,4.69,1.08,5.84Z"/>
    </g>
  </g>
</svg>
